name C:\Users\u0150099\Documents\master_thesis\3dpredictsim\Results\debug\Fal_s1_mtjc2_sc_cspx10_oy2_ATx70_Fpsl10_MTc2_MTPm_k1_d01_MTJm_nl_MG_exp5_table_d01_PF_Natali2010_ls146_FDB2_lTs125_Fpsl10_ig21_wAk1.5e+04_wa2e+03_wpMnD1e+03.mot
datacolumns 130
datarows 4
range 0.54668544 0.57948656
endheader
time	pelvis_tilt	pelvis_list	pelvis_rotation	pelvis_tx	pelvis_ty	pelvis_tz	hip_flexion_l	hip_adduction_l	hip_rotation_l	hip_flexion_r	hip_adduction_r	hip_rotation_r	knee_angle_l	knee_angle_r	ankle_angle_l	ankle_angle_r	subtalar_angle_l	subtalar_angle_r	mtj_angle_l	mtj_angle_r	mtp_angle_l	mtp_angle_r	lumbar_extension	lumbar_bending	lumbar_rotation	arm_flex_l	arm_add_l	arm_rot_l	arm_flex_r	arm_add_r	arm_rot_r	elbow_flex_l	elbow_flex_r	pro_sup_l	pro_sup_r	glut_med1_l/activation	glut_med2_l/activation	glut_med3_l/activation	glut_min1_l/activation	glut_min2_l/activation	glut_min3_l/activation	semimem_l/activation	semiten_l/activation	bifemlh_l/activation	bifemsh_l/activation	sar_l/activation	add_long_l/activation	add_brev_l/activation	add_mag1_l/activation	add_mag2_l/activation	add_mag3_l/activation	tfl_l/activation	pect_l/activation	grac_l/activation	glut_max1_l/activation	glut_max2_l/activation	glut_max3_l/activation	iliacus_l/activation	psoas_l/activation	quad_fem_l/activation	gem_l/activation	peri_l/activation	rect_fem_l/activation	vas_med_l/activation	vas_int_l/activation	vas_lat_l/activation	med_gas_l/activation	lat_gas_l/activation	soleus_l/activation	tib_post_l/activation	flex_dig_l/activation	flex_hal_l/activation	tib_ant_l/activation	per_brev_l/activation	per_long_l/activation	per_tert_l/activation	ext_dig_l/activation	ext_hal_l/activation	FDB_l/activation	ercspn_l/activation	intobl_l/activation	extobl_l/activation	glut_med1_r/activation	glut_med2_r/activation	glut_med3_r/activation	glut_min1_r/activation	glut_min2_r/activation	glut_min3_r/activation	semimem_r/activation	semiten_r/activation	bifemlh_r/activation	bifemsh_r/activation	sar_r/activation	add_long_r/activation	add_brev_r/activation	add_mag1_r/activation	add_mag2_r/activation	add_mag3_r/activation	tfl_r/activation	pect_r/activation	grac_r/activation	glut_max1_r/activation	glut_max2_r/activation	glut_max3_r/activation	iliacus_r/activation	psoas_r/activation	quad_fem_r/activation	gem_r/activation	peri_r/activation	rect_fem_r/activation	vas_med_r/activation	vas_int_r/activation	vas_lat_r/activation	med_gas_r/activation	lat_gas_r/activation	soleus_r/activation	tib_post_r/activation	flex_dig_r/activation	flex_hal_r/activation	tib_ant_r/activation	per_brev_r/activation	per_long_r/activation	per_tert_r/activation	ext_dig_r/activation	ext_hal_r/activation	FDB_r/activation	ercspn_r/activation	intobl_r/activation	extobl_r/activation	
          0.54668544	         -2.89727283	          2.09184450	         -5.27585727	          0.72709163	          0.91080652	          0.00482881	         26.74170417	          3.13079300	         -1.75419935	        -20.27779817	          0.30404521	         12.15909001	         -7.10999399	         -5.50904855	          2.11746485	         -1.86939373	         -2.22654206	         -1.32128183	         -0.65915180	         -0.16736673	         -3.98925205	         21.93050221	         -3.64216226	         -1.01174242	          2.71068531	         -0.03541113	        -13.45316697	         15.57652547	          3.58029777	        -13.65069410	         19.38397760	         14.84011736	         42.42430872	         86.51662706	         86.51662706	          0.06416106	          0.05000024	          0.05000142	          0.05000016	          0.05000023	          0.05000077	          0.30344227	          0.06988315	          0.29794542	          0.06988306	          0.05000120	          0.11502944	          0.15428483	          0.14206603	          0.12670763	          0.17156664	          0.05000272	          0.05010092	          0.08491817	          0.05000413	          0.06812842	          0.17044729	          0.09633853	          0.09767280	          0.10122303	          0.05000045	          0.05000013	          0.05000005	          0.05000057	          0.05000054	          0.05000050	          0.05911153	          0.05060620	          0.05155863	          0.05000005	          0.06634346	          0.05000078	          0.26156610	          0.05000068	          0.15172514	          0.24467564	          0.58887290	          0.25163821	          0.29276370	          0.06988052	          0.10396253	          0.08261764	          0.45849852	          0.07438802	          0.05000002	          0.61862503	          0.25458579	          0.08291495	          0.05000050	          0.05000007	          0.05000005	          0.09767319	          0.13653225	          0.05000004	          0.05000005	          0.05000007	          0.05000025	          0.05000024	          0.56880338	          0.05000032	          0.05000010	          0.05000060	          0.05000032	          0.05000022	          0.58770246	          0.74595235	          0.05000002	          0.05000015	          0.05000003	          0.36415416	          0.07594256	          0.08013161	          0.05955195	          0.52076906	          0.60655623	          0.33993088	          0.40118058	          0.45717153	          0.50289843	          0.05000000	          0.06300952	          0.12420372	          0.05000008	          0.05000003	          0.09767469	          0.83276678	          0.05000001	          0.05000000	          0.05000001	
          0.55761915	         -2.91247174	          2.20998283	         -5.68685388	          0.74427474	          0.90953157	          0.00507510	         26.69530162	          3.49087412	         -1.49233065	        -20.32952020	         -0.07809519	         11.96180776	         -8.04868868	         -7.05895740	          1.55786789	         -2.29263620	         -2.38258655	         -0.08472595	          0.02124680	         -1.33550679	         -4.93656214	         24.46204617	         -3.43445623	         -1.23754348	          2.79731488	         -0.75729805	        -13.44970710	         15.61127207	          3.13809379	        -13.60011896	         19.38446643	         13.35267765	         44.82950679	         86.51662706	         86.51662706	          0.05427153	          0.05000238	          0.05000010	          0.05911156	          0.05911143	          0.05000103	          0.25666975	          0.05911143	          0.25202020	          0.05911141	          0.05000064	          0.13308986	          0.15423076	          0.12016869	          0.10717913	          0.18707186	          0.05000023	          0.07031252	          0.07182911	          0.05000022	          0.07101214	          0.21607851	          0.08261780	          0.08261780	          0.30249901	          0.08262029	          0.05911161	          0.05000047	          0.05000011	          0.05000011	          0.05000011	          0.05000017	          0.05000009	          0.05000000	          0.05000803	          0.09767301	          0.09339466	          0.27674734	          0.10909345	          0.13847028	          0.20854183	          0.62403725	          0.22724455	          0.24763718	          0.05910916	          0.08793777	          0.06988311	          0.38782569	          0.06292188	          0.05000002	          0.52327034	          0.21534402	          0.07013448	          0.05000096	          0.05000012	          0.05000008	          0.08261788	          0.11548728	          0.05000014	          0.05000021	          0.05000019	          0.05000054	          0.05000053	          0.53093641	          0.05000149	          0.05000018	          0.05000056	          0.05000035	          0.05000031	          0.49711416	          0.68804793	          0.05000003	          0.05000019	          0.05000009	          0.38791720	          0.11427628	          0.12695630	          0.09477147	          0.47129342	          0.55241006	          0.31568525	          0.34215267	          0.53149366	          0.45230601	          0.05000000	          0.05329727	          0.10505899	          0.05000004	          0.05000002	          0.08261915	          0.70440436	          0.05000002	          0.05000011	          0.05000003	
          0.56855285	         -2.92260708	          2.35167455	         -6.08446055	          0.76196795	          0.90847522	          0.00530262	         26.59711253	          3.82801011	         -1.17041276	        -20.34839818	         -0.51928761	         11.66582978	         -9.55106189	         -8.59260543	          0.68297990	         -3.02125421	         -2.52587267	          1.22007537	          0.70102076	         -2.72036113	         -5.77885501	         27.33595890	         -3.18506896	         -1.48794448	          2.87513463	         -1.62142682	        -13.45999488	         15.71301146	          2.58139412	        -13.55115228	         19.36842987	         12.10488636	         47.26874297	         86.51662706	         86.51662706	          0.05000005	          0.05000005	          0.05000033	          0.05000016	          0.05000012	          0.05000013	          0.21710672	          0.05000006	          0.21317386	          0.05000003	          0.06988216	          0.11257609	          0.15478825	          0.13240802	          0.10688150	          0.22274035	          0.05000114	          0.06987849	          0.06075749	          0.05000073	          0.16011732	          0.25066879	          0.06988325	          0.06988322	          0.26708508	          0.06988539	          0.05000024	          0.05911142	          0.05911145	          0.05911144	          0.05911143	          0.05911190	          0.06988314	          0.05913755	          0.05002687	          0.08261790	          0.08079450	          0.32136464	          0.13135949	          0.14647149	          0.30156551	          0.64919950	          0.19221714	          0.20946643	          0.05000000	          0.07438306	          0.05911139	          0.32804636	          0.05322319	          0.05000023	          0.44261359	          0.18215096	          0.05932402	          0.05000085	          0.05000014	          0.05000014	          0.06988318	          0.09768618	          0.05549229	          0.05908624	          0.05000489	          0.05000448	          0.05000681	          0.54253170	          0.05356649	          0.05000064	          0.05000241	          0.05000178	          0.05000220	          0.42048911	          0.67475380	          0.05000046	          0.05000172	          0.05000021	          0.33091215	          0.13651355	          0.13651366	          0.10132388	          0.39957276	          0.47587771	          0.26702559	          0.28941333	          0.44958784	          0.38258775	          0.05000000	          0.05000001	          0.08886522	          0.05000002	          0.05000001	          0.06988426	          0.59582762	          0.05188002	          0.05911143	          0.05000005	
          0.57948656	         -2.92820591	          2.52998751	         -6.46920244	          0.78008049	          0.90765829	          0.00549998	         26.39063172	          4.14382791	         -0.82119282	        -20.30987878	         -1.02651837	         11.29091119	        -11.09451258	        -10.13089412	         -0.34098487	         -4.08296316	         -2.66262492	          2.53448005	          1.36785694	         -4.31118676	         -6.40687275	         30.52024388	         -2.90052815	         -1.77119785	          2.94492884	         -2.60689624	        -13.47756109	         15.83989895	          1.92867669	        -13.50762942	         19.35325488	         11.08527062	         49.72629595	         86.51662706	         86.51662706	          0.27660945	          0.22229973	          0.09215373	          0.08261861	          0.08261744	          0.06990199	          0.18364194	          0.10054914	          0.18031529	          0.06994025	          0.05911147	          0.09522371	          0.13092934	          0.11199881	          0.09040705	          0.25208601	          0.05000024	          0.05910881	          0.14983865	          0.21326074	          0.25002169	          0.29983716	          0.05911151	          0.05911148	          0.22591668	          0.05911339	          0.05911370	          0.05000001	          0.05000004	          0.05000003	          0.05000003	          0.05000040	          0.05911137	          0.05002210	          0.05000038	          0.06988320	          0.06834087	          0.37262234	          0.11111186	          0.14874195	          0.31718483	          0.77748052	          0.53278016	          0.50801062	          0.05000114	          0.08564824	          0.05000002	          0.27748141	          0.05000009	          0.05000002	          0.37438933	          0.15407428	          0.05017989	          0.05000058	          0.05000005	          0.05000004	          0.05911143	          0.08262896	          0.07538421	          0.05000004	          0.05000006	          0.05000017	          0.05000011	          0.53686758	          0.05000064	          0.05000013	          0.05000060	          0.05000029	          0.05000017	          0.35567506	          0.67660595	          0.05000002	          0.05000016	          0.05000004	          0.27990543	          0.11547143	          0.11547152	          0.08570588	          0.33798269	          0.40252604	          0.22586632	          0.24480322	          0.38028861	          0.32361579	          0.05000001	          0.05000003	          0.07516756	          0.05000003	          0.05000001	          0.05911232	          0.50398687	          0.08430663	          0.05000001	          0.05000002	
